<?xml version="1.0" encoding="UTF-8"?>
<svg width="244px" height="1110px" viewBox="0 0 244 1110" version="1.1" xmlns="http://www.w3.org/2000/svg" xmlns:xlink="http://www.w3.org/1999/xlink">
    <!-- Generator: Sketch 40.3 (33839) - http://www.bohemiancoding.com/sketch -->
    <title>icon copy</title>
    <desc>Created with Sketch.</desc>
    <defs>
        <polygon id="path-1" points="26.4525405 23.19456 26.4525405 0.008 13.2407838 0.008 0.029027027 0.008 0.029027027 23.19456"/>
        <polygon id="path-3" points="0 31.68 119.857946 31.68 119.857946 0.008 0 0.008"/>
        <polygon id="path-5" points="30.6354829 27.225322 30.6354829 0.0093902439 15.33455 0.0093902439 0.0336170732 0.0093902439 0.0336170732 27.225322"/>
        <polygon id="path-7" points="0 37.1853659 138.811093 37.1853659 138.811093 0.0093902439 0 0.0093902439"/>
        <rect id="path-9" x="2.84217094e-14" y="0" width="244" height="70" rx="35"/>
        <mask id="mask-10" maskContentUnits="userSpaceOnUse" maskUnits="objectBoundingBox" x="0" y="0" width="244" height="70" fill="white">
            <use xlink:href="#path-9"/>
        </mask>
        <rect id="path-11" x="2.84217094e-14" y="0" width="244" height="70" rx="35"/>
        <mask id="mask-12" maskContentUnits="userSpaceOnUse" maskUnits="objectBoundingBox" x="0" y="0" width="244" height="70" fill="white">
            <use xlink:href="#path-11"/>
        </mask>
        <linearGradient x1="50%" y1="0%" x2="50%" y2="100%" id="linearGradient-13">
            <stop stop-color="#5692FF" offset="0%"/>
            <stop stop-color="#0044E7" offset="100%"/>
        </linearGradient>
        <path d="M55.8109836,35.7471537 C56.422086,34.8297092 57.418517,34.838174 58.0239811,35.7471537 L77.8197042,65.4663584 C78.4308066,66.3838028 78.0269915,67.1275385 76.9204849,67.1275385 L36.9144798,67.1275385 C35.8067523,67.1275385 35.4097964,66.3753381 36.0152605,65.4663584 L55.8109836,35.7471537 Z" id="path-14"/>
        <filter x="-50%" y="-50%" width="200%" height="200%" filterUnits="objectBoundingBox" id="filter-15">
            <feOffset dx="0" dy="0" in="SourceAlpha" result="shadowOffsetOuter1"/>
            <feGaussianBlur stdDeviation="4" in="shadowOffsetOuter1" result="shadowBlurOuter1"/>
            <feColorMatrix values="0 0 0 0 0.417712279   0 0 0 0 0.669100762   0 0 0 0 1  0 0 0 1 0" type="matrix" in="shadowBlurOuter1"/>
        </filter>
        <linearGradient x1="50%" y1="0%" x2="50%" y2="100%" id="linearGradient-16">
            <stop stop-color="#6C92FF" offset="0%"/>
            <stop stop-color="#2854FF" offset="100%"/>
        </linearGradient>
        <path d="M55.8109836,35.7471537 C56.422086,34.8297092 57.418517,34.838174 58.0239811,35.7471537 L77.8197042,65.4663584 C78.4308066,66.3838028 78.0269915,67.1275385 76.9204849,67.1275385 L36.9144798,67.1275385 C35.8067523,67.1275385 35.4097964,66.3753381 36.0152605,65.4663584 L55.8109836,35.7471537 Z" id="path-17"/>
        <filter x="-50%" y="-50%" width="200%" height="200%" filterUnits="objectBoundingBox" id="filter-18">
            <feOffset dx="0" dy="0" in="SourceAlpha" result="shadowOffsetOuter1"/>
            <feGaussianBlur stdDeviation="4" in="shadowOffsetOuter1" result="shadowBlurOuter1"/>
            <feColorMatrix values="0 0 0 0 0.417712279   0 0 0 0 0.669100762   0 0 0 0 1  0 0 0 1 0" type="matrix" in="shadowBlurOuter1"/>
        </filter>
    </defs>
    <g id="Mob-page" stroke="none" stroke-width="1" fill="none" fill-rule="evenodd">
        <g id="icon-copy">
            <g id="Group" transform="translate(-1.000000, 0.000000)">
                <g id="应用试客" transform="translate(1.000000, 0.000000)">
                    <path d="M98.9672432,31.671904 L114.325622,31.671904 L114.325622,22.747744 L98.9672432,22.747744 L98.9672432,31.671904 Z M102.627243,28.317024 L110.665622,28.317024 L110.665622,26.103264 L102.627243,26.103264 L102.627243,28.317024 Z" id="Fill-1" fill="#0064FF"/>
                    <polygon id="Fill-2" fill="#0064FF" points="64.3326486 5.642144 67.9926486 5.642144 67.9926486 2.030624 64.3326486 2.030624"/>
                    <polygon id="Fill-3" fill="#0064FF" points="87.4242162 5.642144 91.0842162 5.642144 91.0842162 2.030624 87.4242162 2.030624"/>
                    <polygon id="Fill-4" fill="#0064FF" points="60.655427 9.259776 60.655427 12.614976 64.3326162 12.614976 64.3326162 31.671936 67.9926162 31.671936 67.9926162 9.259776"/>
                    <polygon id="Fill-5" fill="#0064FF" points="69.8490811 31.352032 69.8490811 28.124512 73.0229189 28.124512 73.0229189 20.003232 70.1734054 20.003232 70.1734054 16.775712 79.4036757 16.775712 79.4036757 20.003232 76.5541622 20.003232 76.5541622 28.124512 79.8570811 28.124512 79.8570811 31.352032"/>
                    <g id="Group-20" transform="translate(0.000000, 0.311904)">
                        <g id="Group-8" transform="translate(93.405405, 0.000000)">
                            <mask id="mask-2" fill="white">
                                <use xlink:href="#path-1"/>
                            </mask>
                            <g id="Clip-7"/>
                            <path d="M10.3834054,12.6384 C11.2191892,13.712 12.1448108,14.69216 13.1333514,15.552 L13.2407027,15.64512 L13.3483784,15.55168 C14.3362703,14.69248 15.2612432,13.712 16.0976757,12.6384 L16.2981081,12.3808 L10.182973,12.3808 L10.3834054,12.6384 Z M24.6218919,23.19456 C20.6103243,23.19456 16.7048108,22.07456 13.3279459,19.95648 L13.2407027,19.90208 L13.1537838,19.95648 C9.77627027,22.07456 5.87043243,23.19456 1.85918919,23.19456 L0.029027027,23.19456 L0.029027027,19.58272 L1.85918919,19.58272 C4.67205405,19.58272 7.46967568,18.90336 9.94978378,17.6176 L10.1479459,17.51456 L9.98708108,17.36064 C8.56135135,15.9984 7.33378378,14.432 6.33778378,12.704 L6.29140541,12.62304 L0.526864865,12.62304 L0.526864865,3.14688 L11.4108649,3.14688 L11.4108649,0.008 L15.0708649,0.008 L15.0708649,3.14688 L25.9538919,3.14688 L25.9538919,12.71904 L22.2942162,12.71904 L22.2942162,6.75808 L4.18686486,6.75808 L4.18686486,9.0944 L20.1218919,9.0944 L20.1218919,12.7408 C19.1301081,14.45408 17.9093514,16.00832 16.4936757,17.36064 L16.3324865,17.51456 L16.530973,17.6176 C19.0110811,18.90336 21.809027,19.58272 24.6218919,19.58272 L26.4527027,19.58272 L26.4527027,23.19456 L24.6218919,23.19456 Z" id="Fill-6" fill="#0064FF" mask="url(#mask-2)"/>
                        </g>
                        <path d="M91.0844108,12.303072 L91.0844108,8.947872 L85.210573,8.947872 L85.210573,1.718752 L81.5499243,1.718752 L81.5499243,8.947872 L69.8489514,8.947872 L69.8489514,12.303072 L81.5499243,12.303072 L81.5499243,26.963232 C81.5499243,29.560672 83.6843027,31.666912 86.3171676,31.666912 C88.9500324,31.666912 91.0844108,29.560672 91.0844108,26.963232 L91.0844108,16.463712 L87.4237622,16.463712 L87.4237622,26.963232 C87.4237622,27.566432 86.9281946,28.055072 86.3171676,28.055072 C85.7061405,28.055072 85.210573,27.566432 85.210573,26.963232 L85.210573,12.303072 L91.0844108,12.303072 Z" id="Fill-9" fill="#0064FF"/>
                        <polygon id="Fill-11" fill="#0064FF" points="26.0944541 11.860864 22.5632108 11.860864 22.5632108 28.086144 6.74072432 28.086144 6.74072432 31.313664 29.073373 31.313664 29.073373 28.086144 26.0944541 28.086144"/>
                        <mask id="mask-4" fill="white">
                            <use xlink:href="#path-3"/>
                        </mask>
                        <g id="Clip-14"/>
                        <polygon id="Fill-13" fill="#0064FF" mask="url(#mask-4)" points="15.7988108 23.94048 19.3300541 23.94048 19.3300541 11.8608 15.7988108 11.8608"/>
                        <polygon id="Fill-15" fill="#0064FF" mask="url(#mask-4)" points="29.7217297 7.701728 29.7220541 4.090528 17.5949189 4.090528 17.5949189 0.951648 13.9349189 0.951648 13.9349189 4.090528 1.1052973 4.090528 1.1052973 26.976288 4.7652973 26.976288 4.7652973 7.701728"/>
                        <path d="M0,28.068128 L0,31.679968 C2.63254054,31.679968 4.76724324,29.574048 4.76724324,26.976288 L4.7652973,26.976288 L1.10659459,26.976288 C1.10659459,27.579168 0.611351351,28.068128 0,28.068128" id="Fill-16" fill="#0064FF" mask="url(#mask-4)"/>
                        <path d="M47.3468108,10.29024 L54.1478919,10.29024 L54.1478919,6.10176 L47.3468108,6.10176 L47.3468108,10.29024 Z M47.3471351,17.81216 L54.1482162,17.81216 L54.1482162,13.64544 L47.3471351,13.64544 L47.3471351,17.81216 Z M37.0144865,17.81216 L43.8158919,17.81216 L43.8158919,13.64544 L37.0144865,13.64544 L37.0144865,17.81216 Z M37.0144865,10.29024 L43.8158919,10.29024 L43.8158919,6.10176 L37.0144865,6.10176 L37.0144865,10.29024 Z M57.8082162,2.49056 L33.3544865,2.49056 L33.3544865,26.97632 L37.0144865,26.97632 L37.0144865,21.16736 L43.8158919,21.16736 L43.8158919,31.03872 L47.3471351,31.03872 L47.3471351,21.16736 L54.1478919,21.16736 L54.1478919,26.97632 L54.1459459,26.97632 C54.1459459,27.5792 53.6507027,28.06816 53.0393514,28.06816 L53.0393514,31.68 C55.6718919,31.68 57.8065946,29.57408 57.8065946,26.97632 L57.8082162,26.97632 L57.8082162,6.10176 L57.8082162,6.10176 L57.8082162,2.49056 Z" id="Fill-17" fill="#0064FF" mask="url(#mask-4)"/>
                        <path d="M31.9236973,28.068128 L31.9236973,31.679968 C34.5562378,31.679968 37.0152649,29.574048 37.0152649,26.976288 L37.0146162,26.976288 L33.3546162,26.976288 C33.3546162,27.579168 32.5350486,28.068128 31.9236973,28.068128" id="Fill-18" fill="#0064FF" mask="url(#mask-4)"/>
                        <polygon id="Fill-19" fill="#0064FF" mask="url(#mask-4)" points="12.2413297 20.459392 12.2413297 11.860992 8.71008649 11.860992 8.71008649 23.940672 9.61851892 23.940672 9.61851892 23.943552 14.0202486 23.943552 14.0202486 20.459392"/>
                    </g>
                </g>
                <path d="M18.6125509,208.076745 L29.2128542,197.476442 C29.41015,197.279146 29.4151433,196.959027 29.2207798,196.764664 L26.3890983,193.932982 C26.1890896,193.732974 25.876061,193.742167 25.6773203,193.940908 L15.077017,204.541211 L4.47671372,193.940908 C4.27797305,193.742167 3.96494443,193.732974 3.76493572,193.932982 L0.933254182,196.764664 C0.738890717,196.959027 0.743884009,197.279146 0.941179813,197.476442 L11.5414831,208.076745 L0.941179813,218.677049 C0.743884009,218.874344 0.738890717,219.194463 0.933254182,219.388827 L3.76493572,222.220508 C3.96494443,222.420517 4.27797305,222.411323 4.47671372,222.212582 L15.077017,211.612279 L25.6773203,222.212582 C25.876061,222.411323 26.1890896,222.420517 26.3890983,222.220508 L29.2207798,219.388827 C29.4151433,219.194463 29.41015,218.874344 29.2128542,218.677049 L18.6125509,208.076745 Z" id="close" fill="#0064FF"/>
                <path d="M1,284.497699 C1,284.222827 1.22143126,284 1.50264359,284 L32.4973564,284 C32.7749588,284 33,284.214844 33,284.497699 L33,288.502301 C33,288.777173 32.7785687,289 32.4973564,289 L1.50264359,289 C1.2250412,289 1,288.785156 1,288.502301 L1,284.497699 Z M1,294.497699 C1,294.222827 1.22143126,294 1.50264359,294 L32.4973564,294 C32.7749588,294 33,294.214844 33,294.497699 L33,298.502301 C33,298.777173 32.7785687,299 32.4973564,299 L1.50264359,299 C1.2250412,299 1,298.785156 1,298.502301 L1,294.497699 Z M1,304.497699 C1,304.222827 1.22143126,304 1.50264359,304 L32.4973564,304 C32.7749588,304 33,304.214844 33,304.497699 L33,308.502301 C33,308.777173 32.7785687,309 32.4973564,309 L1.50264359,309 C1.2250412,309 1,308.785156 1,308.502301 L1,304.497699 Z" id="menu" fill="#0064FF"/>
                <g id="应用试客-copy" transform="translate(1.000000, 94.000000)">
                    <path d="M114.616941,37.1758629 L132.403941,37.1758629 L132.403941,26.700858 L114.616941,26.700858 L114.616941,37.1758629 Z M118.855698,33.2379702 L128.165185,33.2379702 L128.165185,30.639502 L118.855698,30.639502 L118.855698,33.2379702 Z" id="Fill-1" fill="#C9CED4"/>
                    <polygon id="Fill-2" fill="#C9CED4" points="74.5055756 6.62263854 78.7443317 6.62263854 78.7443317 2.38350683 74.5055756 2.38350683"/>
                    <polygon id="Fill-3" fill="#C9CED4" points="101.248615 6.62263854 105.487371 6.62263854 105.487371 2.38350683 101.248615 2.38350683"/>
                    <polygon id="Fill-4" fill="#C9CED4" points="70.2468746 10.8689444 70.2468746 14.8072127 74.505538 14.8072127 74.505538 37.1759005 78.7442941 37.1759005 78.7442941 10.8689444"/>
                    <polygon id="Fill-5" fill="#C9CED4" points="80.894322 36.8004034 80.894322 33.0120034 84.570039 33.0120034 84.570039 23.4794034 81.2699317 23.4794034 81.2699317 19.6910034 91.9597854 19.6910034 91.9597854 23.4794034 88.659678 23.4794034 88.659678 33.0120034 92.4848878 33.0120034 92.4848878 36.8004034"/>
                    <g id="Group-27" transform="translate(0.000000, 0.366107)">
                        <g id="Group-8" transform="translate(108.175610, 0.000000)">
                            <mask id="mask-6" fill="white">
                                <use xlink:href="#path-5"/>
                            </mask>
                            <g id="Clip-7"/>
                            <path d="M12.0253341,14.8347073 C12.9932805,16.094878 14.0652707,17.2453707 15.2101293,18.2546341 L15.3344561,18.3639366 L15.4591585,18.2542585 C16.6032659,17.2457463 17.6745049,16.094878 18.6432024,14.8347073 L18.8753293,14.5323415 L11.7932073,14.5323415 L12.0253341,14.8347073 Z M28.5153537,27.225322 C23.8694366,27.225322 19.3463439,25.9106878 15.4354951,23.4245268 L15.3344561,23.3606732 L15.2337927,23.4245268 C11.3221927,25.9106878 6.79872439,27.225322 2.15318293,27.225322 L0.0336170732,27.225322 L0.0336170732,22.9858146 L2.15318293,22.9858146 C5.41084634,22.9858146 8.6508561,22.1883951 11.5231439,20.6791951 L11.7526415,20.5582488 L11.566339,20.3775805 C9.91515854,18.7786098 8.49347561,16.94 7.33997805,14.9117073 L7.28626585,14.816678 L0.610178049,14.816678 L0.610178049,3.69374634 L13.2152659,3.69374634 L13.2152659,0.0093902439 L17.454022,0.0093902439 L17.454022,3.69374634 L30.0579829,3.69374634 L30.0579829,14.929361 L25.8196024,14.929361 L25.8196024,7.93250244 L4.84930976,7.93250244 L4.84930976,10.6748293 L23.3037683,10.6748293 L23.3037683,14.9549024 C22.1551537,16.9659171 20.7413585,18.7902537 19.101822,20.3775805 L18.9151439,20.5582488 L19.1450171,20.6791951 C22.0173049,22.1883951 25.2576902,22.9858146 28.5153537,22.9858146 L30.6356707,22.9858146 L30.6356707,27.225322 L28.5153537,27.225322 Z" id="Fill-6" fill="#C9CED4" mask="url(#mask-6)"/>
                        </g>
                        <path d="M105.487596,14.4411059 L105.487596,10.5028376 L98.6849278,10.5028376 L98.6849278,2.01743756 L94.4454205,2.01743756 L94.4454205,10.5028376 L80.8941717,10.5028376 L80.8941717,14.4411059 L94.4454205,14.4411059 L94.4454205,31.6489156 C94.4454205,34.69774 96.9173083,37.1700034 99.9665083,37.1700034 C103.015708,37.1700034 105.487596,34.69774 105.487596,31.6489156 L105.487596,19.3247839 L101.248089,19.3247839 L101.248089,31.6489156 C101.248089,32.35694 100.674157,32.9304961 99.9665083,32.9304961 C99.2588595,32.9304961 98.6849278,32.35694 98.6849278,31.6489156 L98.6849278,14.4411059 L105.487596,14.4411059 Z" id="Fill-9" fill="#C9CED4"/>
                        <polygon id="Fill-11" fill="#C9CED4" points="1.27989024 31.6641654 1.27989024 4.80130683 16.1386366 4.80130683 16.1386366 1.11695073 20.3773927 1.11695073 20.3773927 4.80130683 34.4218171 4.80130683 34.4214415 9.04006293 5.51864634 9.04006293 5.51864634 31.6641654"/>
                        <polyline id="Fill-13" fill="#C9CED4" points="30.2207722 13.9220507 30.2207722 32.9669678 33.6707478 32.9669678 33.6707478 36.7553678 7.80663561 36.7553678 7.80663561 32.9669678 26.1311332 32.9669678 26.1311332 13.9220507"/>
                        <mask id="mask-8" fill="white">
                            <use xlink:href="#path-7"/>
                        </mask>
                        <g id="Clip-16"/>
                        <polygon id="Fill-15" fill="#C9CED4" mask="url(#mask-8)" points="18.297078 28.1008683 22.3867171 28.1008683 22.3867171 13.9219756 18.297078 13.9219756"/>
                        <polygon id="Fill-17" fill="#C9CED4" mask="url(#mask-8)" points="10.0873756 28.1008683 14.1770146 28.1008683 14.1770146 13.9219756 10.0873756 13.9219756"/>
                        <path d="M5.52116293,31.6642029 C5.52116293,34.7134029 3.04889951,37.1852907 7.51219509e-05,37.1852907 L7.51219509e-05,32.9457834 C0.708099512,32.9457834 1.28165561,32.3718517 1.28165561,31.6642029 L5.52116293,31.6642029 Z" id="Fill-18" fill="#C9CED4" mask="url(#mask-8)"/>
                        <polyline id="Fill-19" fill="#C9CED4" mask="url(#mask-8)" points="66.949622 2.92325805 66.9492463 7.16201415 42.867778 7.16201415 42.867778 31.6641654 38.6286463 31.6641654 38.6286463 2.92325805"/>
                        <path d="M42.8685668,31.6642029 C42.8685668,34.7134029 40.0206937,37.1852907 36.9718693,37.1852907 L36.9718693,32.9457834 C37.6798937,32.9457834 38.6290595,32.3718517 38.6290595,31.6642029 L42.8685668,31.6642029 Z" id="Fill-20" fill="#C9CED4" mask="url(#mask-8)"/>
                        <polyline id="Fill-21" fill="#C9CED4" mask="url(#mask-8)" points="66.9492463 3.91494293 66.9492463 31.6642405 62.7104902 31.6642405 62.7104902 3.94123561"/>
                        <path d="M66.9477439,31.6642029 C66.9477439,34.7134029 64.4754805,37.1852907 61.4266561,37.1852907 L61.4266561,32.9457834 C62.1346805,32.9457834 62.7082366,32.3718517 62.7082366,31.6642029 L66.9477439,31.6642029 Z" id="Fill-22" fill="#C9CED4" mask="url(#mask-8)"/>
                        <polygon id="Fill-23" fill="#C9CED4" mask="url(#mask-8)" points="42.4292537 16.0167512 63.718439 16.0167512 63.718439 12.0784829 42.4292537 12.0784829"/>
                        <polygon id="Fill-24" fill="#C9CED4" mask="url(#mask-8)" points="42.4292537 24.8458341 63.718439 24.8458341 63.718439 20.9075659 42.4292537 20.9075659"/>
                        <polygon id="Fill-25" fill="#C9CED4" mask="url(#mask-8)" points="50.7445024 36.4326439 54.8341415 36.4326439 54.8341415 4.27180976 50.7445024 4.27180976"/>
                        <polygon id="Fill-26" fill="#C9CED4" mask="url(#mask-8)" points="11.1398341 28.1046244 16.2372341 28.1046244 16.2372341 24.0149854 11.1398341 24.0149854"/>
                    </g>
                </g>
            </g>
            <g id="查看证书" transform="translate(0.000000, 369.000000)">
                <use id="Rectangle-10" stroke="#026DFF" mask="url(#mask-10)" stroke-width="6" xlink:href="#path-9"/>
                <text font-family="PingFangSC-Medium, PingFang SC" font-size="24" font-weight="400" fill="#026DFF">
                    <tspan x="40" y="43">查看证书</tspan>
                </text>
                <path d="M202.98756,35.4706331 L196.327978,41.339181 C196.119374,41.5229839 195.84533,41.6150028 195.571554,41.6150028 C195.298578,41.6150028 195.025603,41.5236882 194.816999,41.3408242 C194.399256,40.9746268 194.398454,40.3802603 194.815129,40.0131239 L199.656567,35.7464548 L184.068396,35.7464548 C183.478374,35.7464548 183,35.326032 183,34.8074871 C183,34.2889422 183.478374,33.8685195 184.068396,33.8685195 L199.656567,33.8685195 L194.815129,29.6020851 C194.398454,29.2349487 194.399256,28.6403475 194.816999,28.2741501 C195.234742,27.9079527 195.911304,27.9086569 196.327978,28.276028 L202.98756,34.144576 C203.403434,34.5110081 203.403434,35.1039662 202.98756,35.4706331" id="arrow-thin-right" stroke="#026DFF" fill="#026DFF"/>
            </g>
            <g id="查看证书-copy" transform="translate(0.000000, 499.000000)">
                <use id="Rectangle-10" stroke="#026DFF" mask="url(#mask-12)" stroke-width="6" fill="#428EF5" xlink:href="#path-11"/>
                <text id="查看证书" font-family="PingFangSC-Medium, PingFang SC" font-size="24" font-weight="400" fill="#FFFFFF">
                    <tspan x="40" y="43">查看证书</tspan>
                </text>
                <path d="M195.327978,41.339181 C195.119374,41.5229839 194.84533,41.6150028 194.571554,41.6150028 C194.298578,41.6150028 194.025603,41.5236882 193.816999,41.3408242 C193.399256,40.9746268 193.398454,40.3802603 193.815129,40.0131239 L198.656567,35.7464548 L183.068396,35.7464548 C182.478374,35.7464548 182,35.326032 182,34.8074871 C182,34.2889422 182.478374,33.8685195 183.068396,33.8685195 L198.656567,33.8685195 L193.815129,29.6020851 C193.398454,29.2349487 193.399256,28.6403475 193.816999,28.2741501 C194.234742,27.9079527 194.911304,27.9086569 195.327978,28.276028 L201.98756,34.144576 C202.403434,34.5110081 202.403434,35.1039662 201.98756,35.4706331 L195.327978,41.339181 Z" id="arrow-thin-right" stroke="#FFFFFF" fill="#FFFFFF"/>
            </g>
            <g id="play" transform="translate(0.000000, 629.000000)">
                <ellipse id="Oval-5-Copy-6" fill="url(#linearGradient-13)" cx="50" cy="49.9487705" rx="50" ry="49.9487705"/>
                <g id="Triangle-Copy-2" transform="translate(56.918607, 51.094890) rotate(90.000000) translate(-56.918607, -51.094890) " fill-opacity="1" fill="black">
                    <use filter="url(#filter-15)" xlink:href="#path-14"/>
                </g>
                <path d="M55.8109836,35.7471537 C56.422086,34.8297092 57.418517,34.838174 58.0239811,35.7471537 L77.8197042,65.4663584 C78.4308066,66.3838028 78.0269915,67.1275385 76.9204849,67.1275385 L36.9144798,67.1275385 C35.8067523,67.1275385 35.4097964,66.3753381 36.0152605,65.4663584 L55.8109836,35.7471537 Z" id="Triangle-Copy-3" fill="#FFFFFF" transform="translate(56.918607, 51.094890) rotate(90.000000) translate(-56.918607, -51.094890) "/>
            </g>
            <g id="play" transform="translate(0.000000, 789.000000)">
                <ellipse id="Oval-5-Copy-6" fill="url(#linearGradient-16)" cx="50" cy="49.9487705" rx="50" ry="49.9487705"/>
                <g id="Triangle-Copy-2" transform="translate(56.918607, 51.094890) rotate(90.000000) translate(-56.918607, -51.094890) " fill-opacity="1" fill="black">
                    <use filter="url(#filter-18)" xlink:href="#path-17"/>
                </g>
                <path d="M55.8109836,35.7471537 C56.422086,34.8297092 57.418517,34.838174 58.0239811,35.7471537 L77.8197042,65.4663584 C78.4308066,66.3838028 78.0269915,67.1275385 76.9204849,67.1275385 L36.9144798,67.1275385 C35.8067523,67.1275385 35.4097964,66.3753381 36.0152605,65.4663584 L55.8109836,35.7471537 Z" id="Triangle-Copy-3" fill="#EBF2FF" transform="translate(56.918607, 51.094890) rotate(90.000000) translate(-56.918607, -51.094890) "/>
            </g>
        </g>
    </g>
</svg>